<?xml version="1.0" encoding="UTF-8" standalone="no"?>
<svg
   viewBox="0 0 252.41724 252.41723"
   version="1.1"
   id="svg3"
   sodipodi:docname="big-icon.svg"
   width="252.41724"
   height="252.41724"
   inkscape:version="1.4.2 (ebf0e940d0, 2025-05-08)"
   xmlns:inkscape="http://www.inkscape.org/namespaces/inkscape"
   xmlns:sodipodi="http://sodipodi.sourceforge.net/DTD/sodipodi-0.dtd"
   xmlns="http://www.w3.org/2000/svg"
   xmlns:svg="http://www.w3.org/2000/svg">
  <defs
     id="defs3" />
  <sodipodi:namedview
     id="namedview3"
     pagecolor="#ffffff"
     bordercolor="#000000"
     borderopacity="0.25"
     inkscape:showpageshadow="2"
     inkscape:pageopacity="0.0"
     inkscape:pagecheckerboard="0"
     inkscape:deskcolor="#d1d1d1"
     inkscape:zoom="2.0755555"
     inkscape:cx="126.23127"
     inkscape:cy="162.12527"
     inkscape:window-width="1750"
     inkscape:window-height="1058"
     inkscape:window-x="0"
     inkscape:window-y="0"
     inkscape:window-maximized="0"
     inkscape:current-layer="svg3" />
  <rect
     style="fill:#46494d;fill-opacity:1;stroke:none;stroke-width:21.3883;stroke-dasharray:1711.06, 42.7765, 106.941, 42.7765, 85.5532, 42.7765, 64.1649, 42.7765, 42.7765, 42.7765, 21.3883;paint-order:fill markers stroke"
     id="rect3"
     width="252.41724"
     height="252.41724"
     x="0"
     y="0"
     ry="19.295128" />
  <path
     class="white"
     d="M 182.62361,121.91376 A 55.995114,55.995114 0 0 0 126.83123,70.257154 55.995114,55.995114 0 0 0 76.715407,101.3241 c 3.52757,-0.13786 7.18489,-0.0486 10.98007,0.30005 a 46.215228,46.215228 0 0 1 85.245563,21.35194 58.955029,58.955029 0 0 0 9.68257,-1.06233 z m -8.05259,33.46732 c -3.7303,0.12975 -7.59847,0.0243 -11.60449,-0.36492 a 46.150354,46.150354 0 0 1 -36.1353,17.41079 46.271994,46.271994 0 0 1 -45.61513,-38.70597 c -3.357274,-0.0811 -6.584798,0.16219 -9.739338,0.67308 a 55.954567,55.954567 0 0 0 103.102368,20.98702 z"
     id="path1"
     style="fill:#fefefe;fill-opacity:1;stroke:#fefefe;stroke-width:3.7303;stroke-linecap:butt;stroke-linejoin:round;stroke-dasharray:none;stroke-opacity:1" />
  <path
     class="blue"
     fill="none"
     stroke-linecap="round"
     stroke-width="10"
     d="m 34.572878,130.65565 c 16.616074,-7.78499 33.232147,-15.56997 55.143631,-12.4803 21.911491,3.08966 49.126491,17.06208 71.362351,20.27339 22.23586,3.21941 39.50068,-4.31418 56.7655,-11.83966"
     id="path2"
     style="stroke:#7ca7db;stroke-width:12.6506;stroke-dasharray:none;stroke-opacity:1" />
  <path
     class="white2"
     fill="none"
     stroke-linecap="square"
     stroke-width="10"
     d="m 58.485571,76.550015 9.836651,7.144344 M 100.7191,45.856097 104.48184,57.42815 m 48.46152,-11.572053 -3.76274,11.572053 m 45.99628,19.121865 -9.83665,7.144344 m 9.83665,92.170961 -9.83665,-7.15246 m -32.39689,37.83826 -3.76274,-11.56394 m -48.46152,11.56394 3.76274,-11.56394 m -45.996269,-19.12186 9.836651,-7.15246"
     id="path3"
     style="stroke:#fefefe;stroke-width:12.8939;stroke-linecap:round;stroke-dasharray:none;stroke-opacity:1" />
</svg>
